HIERARCHY
ROOT hip
{
  OFFSET 0 0 0
  CHANNELS 6 Xposition Yposition Zposition Zrotation Yrotation Xrotation
  JOINT abdomen
  {
    OFFSET 0 20.6881 -0.73152
    CHANNELS 3 Zrotation Xrotation Yrotation
    JOINT chest
    {
      OFFSET 0 11.7043 -0.48768
      CHANNELS 3 Zrotation Xrotation Yrotation
      JOINT neck
      {
        OFFSET 0 22.1894 -2.19456
        CHANNELS 3 Zrotation Xrotation Yrotation
        JOINT head
        {
          OFFSET -0.24384 7.07133 1.2192
          CHANNELS 3 Zrotation Xrotation Yrotation
          JOINT leftEye
          {
            OFFSET 4.14528 8.04674 8.04672
            CHANNELS 3 Zrotation Xrotation Yrotation
            End Site
            {
              OFFSET 1 0 0
            }
          }
          JOINT rightEye
          {
            OFFSET -3.6576 8.04674 8.04672
            CHANNELS 3 Zrotation Xrotation Yrotation
            End Site
            {
              OFFSET 1 0 0
            }
          }
        }
      }
      JOINT rCollar
      {
        OFFSET -2.68224 19.2634 -4.8768
        CHANNELS 3 Zrotation Xrotation Yrotation
        JOINT rShldr
        {
          OFFSET -8.77824 -1.95073 1.46304
          CHANNELS 3 Zrotation Xrotation Yrotation
          JOINT rForeArm
          {
            OFFSET -28.1742 -1.7115 0.48768
            CHANNELS 3 Zrotation Xrotation Yrotation
            JOINT rHand
            {
              OFFSET -22.5879 0.773209 7.07136
              CHANNELS 3 Zrotation Xrotation Yrotation
              JOINT rThumb1
              {
                OFFSET -1.2192 -0.487915 3.41376
                CHANNELS 3 Zrotation Xrotation Yrotation
                JOINT rThumb2
                {
                  OFFSET -3.37035 -0.52449 3.41376
                  CHANNELS 3 Zrotation Xrotation Yrotation
                  End Site
                  {
                    OFFSET -1.78271 -1.18214 1.43049
                  }
                }
              }
              JOINT rIndex1
              {
                OFFSET -7.75947 0.938293 5.60832
                CHANNELS 3 Zrotation Xrotation Yrotation
                JOINT rIndex2
                {
                  OFFSET -2.54057 -0.884171 1.56538
                  CHANNELS 3 Zrotation Xrotation Yrotation
                  End Site
                  {
                    OFFSET -1.62519 -0.234802 1.16502
                  }
                }
              }
              JOINT rMid1
              {
                OFFSET -8.24714 1.18213 3.41376
                CHANNELS 3 Zrotation Xrotation Yrotation
                JOINT rMid2
                {
                  OFFSET -3.10165 -0.590103 1.0647
                  CHANNELS 3 Zrotation Xrotation Yrotation
                  End Site
                  {
                    OFFSET -2.48547 -0.328903 0.83742
                  }
                }
              }
              JOINT rRing1
              {
                OFFSET -8.82822 0.546677 1.51678
                CHANNELS 3 Zrotation Xrotation Yrotation
                JOINT rRing2
                {
                  OFFSET -2.60934 -0.819778 -0.0198488
                  CHANNELS 3 Zrotation Xrotation Yrotation
                  End Site
                  {
                    OFFSET -2.33842 -0.294052 0.168128
                  }
                }
              }
              JOINT rPinky1
              {
                OFFSET -8.27202 -0.0477905 -0.4584
                CHANNELS 3 Zrotation Xrotation Yrotation
                JOINT rPinky2
                {
                  OFFSET -1.82734 -0.647385 -0.700984
                  CHANNELS 3 Zrotation Xrotation Yrotation
                  End Site
                  {
                    OFFSET -1.69225 -0.51767 -0.607171
                  }
                }
              }
            }
          }
        }
      }
      JOINT lCollar
      {
        OFFSET 2.68224 19.2634 -4.8768
        CHANNELS 3 Zrotation Xrotation Yrotation
        JOINT lShldr
        {
          OFFSET 8.77824 -1.95073 1.46304
          CHANNELS 3 Zrotation Xrotation Yrotation
          JOINT lForeArm
          {
            OFFSET 28.1742 -1.7115 0.48768
            CHANNELS 3 Zrotation Xrotation Yrotation
            JOINT lHand
            {
              OFFSET 22.5879 0.773209 7.07136
              CHANNELS 3 Zrotation Xrotation Yrotation
              JOINT lThumb1
              {
                OFFSET 1.2192 -0.487915 3.41376
                CHANNELS 3 Zrotation Xrotation Yrotation
                JOINT lThumb2
                {
                  OFFSET 3.37035 -0.52449 3.41376
                  CHANNELS 3 Zrotation Xrotation Yrotation
                  End Site
                  {
                    OFFSET 1.78271 -1.18214 1.43049
                  }
                }
              }
              JOINT lIndex1
              {
                OFFSET 7.75947 0.938293 5.60832
                CHANNELS 3 Zrotation Xrotation Yrotation
                JOINT lIndex2
                {
                  OFFSET 2.54057 -0.884171 1.56538
                  CHANNELS 3 Zrotation Xrotation Yrotation
                  End Site
                  {
                    OFFSET 1.62519 -0.234802 1.16502
                  }
                }
              }
              JOINT lMid1
              {
                OFFSET 8.24714 1.18213 3.41376
                CHANNELS 3 Zrotation Xrotation Yrotation
                JOINT lMid2
                {
                  OFFSET 3.10165 -0.590103 1.0647
                  CHANNELS 3 Zrotation Xrotation Yrotation
                  End Site
                  {
                    OFFSET 2.48547 -0.328903 0.83742
                  }
                }
              }
              JOINT lRing1
              {
                OFFSET 8.82822 0.546677 1.51678
                CHANNELS 3 Zrotation Xrotation Yrotation
                JOINT lRing2
                {
                  OFFSET 2.60934 -0.819778 -0.0198488
                  CHANNELS 3 Zrotation Xrotation Yrotation
                  End Site
                  {
                    OFFSET 2.33842 -0.294052 0.168128
                  }
                }
              }
              JOINT lPinky1
              {
                OFFSET 8.27202 -0.0477905 -0.4584
                CHANNELS 3 Zrotation Xrotation Yrotation
                JOINT lPinky2
                {
                  OFFSET 1.82734 -0.647385 -0.700984
                  CHANNELS 3 Zrotation Xrotation Yrotation
                  End Site
                  {
                    OFFSET 1.69225 -0.51767 -0.607171
                  }
                }
              }
            }
          }
        }
      }
    }
  }
  JOINT rButtock
  {
    OFFSET -8.77824 4.35084 1.2192
    CHANNELS 3 Zrotation Xrotation Yrotation
    JOINT rThigh
    {
      OFFSET 0 -1.70687 -2.19456
      CHANNELS 3 Zrotation Xrotation Yrotation
      JOINT rShin
      {
        OFFSET 0 -36.8199 0.73152
        CHANNELS 3 Zrotation Xrotation Yrotation
        JOINT rFoot
        {
          OFFSET 0.73152 -45.1104 -5.12064
          CHANNELS 3 Zrotation Xrotation Yrotation
          End Site
          {
            OFFSET -1.1221 -3.69964 12.103
          }
        }
      }
    }
  }
  JOINT lButtock
  {
    OFFSET 8.77824 4.35084 1.2192
    CHANNELS 3 Zrotation Xrotation Yrotation
    JOINT lThigh
    {
      OFFSET 0 -1.70687 -2.19456
      CHANNELS 3 Zrotation Xrotation Yrotation
      JOINT lShin
      {
        OFFSET 0 -36.8199 0.73152
        CHANNELS 3 Zrotation Xrotation Yrotation
        JOINT lFoot
        {
          OFFSET -0.73152 -45.1104 -5.12064
          CHANNELS 3 Zrotation Xrotation Yrotation
          End Site
          {
            OFFSET 1.1221 -3.69964 12.103
          }
        }
      }
    }
  }
}
MOTION
Frames:	4
Frame Time:	0.03333
7.12945997947827 65.15330076217651 8.030999969923869 342.0339897081378 -27.49460036235346 372.59201016796476 16.54370000946407 9.193019688845084 -2.3119099644660075 5.430359828865209 -7.862779730056218 -0.1142339933937509 1.8836099325122526 11.762600033853705 8.537680113455286 -0.04530079944823314 -21.299099690774973 16.681000472159667 -0.0 0.0 0.0 -0.0 0.0 0.0 -1.0114900108588984e-13 -2.8213200060770444e-14 6.046689868241608e-13 104.09799789481556 46.93549927810228 -54.610900452242014 -26.7731991973113 -44.59660003457437 92.63929688279781 -9.237579842990248 -61.98839951063705 -15.318900242213632 -2.3120600954936983e-09 4.042560140744479e-09 5.962659908628333e-10 -4.002489922590062e-09 6.735509947532852e-09 9.100860037929804e-10 -2.312049957475651e-09 4.042560140744479e-09 5.962489947737542e-10 7.730910121524428 5.474879855648998 0.41731399283890674 -2.3120600954936983e-09 4.042560140744479e-09 5.962669847861712e-10 2.90554006136521 0.9651829962377875 0.10290200252939893 -2.312049957475651e-09 4.042570079977859e-09 5.962659908628333e-10 10.278599710243157 0.7318009818271524 0.025912300303053633 -2.3120600954936983e-09 4.042570079977859e-09 5.962739919457038e-10 2.221669932038622 -0.7334870246959406 -0.20891999872313852 -1.0124400132681033e-13 -2.8217300965167776e-14 6.045049991796804e-13 19.65550004437603 22.355600181781718 -111.94699857199492 27.877799588000563 -29.921299980114583 -67.12000259633767 0.7120069868907497 -23.243099594607543 3.4605699845003204 1.0417099793383329e-09 -2.098030035390636e-09 4.660549866739544e-09 1.7155900024734155e-09 -3.6934298582215587e-09 8.062920009812344e-09 1.0417099793383329e-09 -2.098030035390636e-09 4.660559805972924e-09 -7.730910121524428 5.474879855648998 -0.41731399283890674 1.0417099793383329e-09 -2.098030035390636e-09 4.660549866739544e-09 -2.90554006136521 0.9651829962377875 -0.10290200252939893 1.0417099793383329e-09 -2.098030035390636e-09 4.660559805972924e-09 -10.278599710243157 0.7318009818271524 -0.025912300303053633 1.0417099793383329e-09 -2.098030035390636e-09 4.660549866739544e-09 -2.221669932038622 -0.7334870246959406 0.20891999872313852 -2.0321699793705798e-16 0.0 -3.882510030490358e-19 -9.019670341483808 3.1215100025907785 -9.945030346652658 -0.1123259960573637 37.574499624357195 1.7133599969302802 -11.477199725611076 -14.826199423792884 -27.593899360054397 2.0321699793705798e-16 0.0 3.882510030490358e-19 82.5406026477455 -51.939900335795166 69.77040286224776 3.954049871373272 77.38010103166656 -4.132050150672505 -1.3242499896084716 -2.7750599694426947 -10.235399617516471
7.158559979870915 65.10720252990723 8.127999969292432 342.0530049547872 -27.538600440986684 372.52299793659097 16.485499967546392 9.239949918632242 -2.402690008724647 5.533820119317977 -7.91236007324134 -0.13021000596560905 1.884390068181515 11.725199625506006 8.52934984398881 -0.016357200827063014 -21.099900638726137 16.662900470859135 -0.0 0.0 0.0 -0.0 0.0 0.0 -5.389290142328379e-13 -4.871600221549169e-13 1.2571399594973376e-12 104.11199978261408 47.00070026391922 -54.71200091233654 -26.753000620388278 -44.64590034000353 92.73929768243597 -9.167189620951389 -61.86719780381518 -15.239099727045787 -2.091870096111311e-09 7.196389813927664e-09 1.9897100833887006e-09 -3.6920300165923796e-09 1.2355499975942654e-08 3.3347400210341645e-09 -2.091870096111311e-09 7.196400150730379e-09 1.9896999453706534e-09 7.730910121524428 5.474879855648998 0.41731399283890674 -2.091880035344691e-09 7.196400150730379e-09 1.9897100833887006e-09 2.90554006136521 0.9651829962377875 0.10290200252939893 -2.0918599580932644e-09 7.196389813927664e-09 1.9897100833887006e-09 10.278599710243157 0.7318009818271524 0.025912300303053633 -2.091880035344691e-09 7.196400150730379e-09 1.9897100833887006e-09 2.221669932038622 -0.7334870246959406 -0.20891999872313852 -5.390719877754952e-13 -4.871590029952442e-13 1.256910017662609e-12 18.82000056924881 20.18020029905829 -111.35400154825442 28.099799519046197 -31.23650071612473 -69.21350338827077 0.7438589871157224 -23.7221997988435 3.540719906532893 5.513089995288472e-09 -1.8989100180649393e-09 8.887590130395612e-09 9.358549969714651e-09 -3.4789598876491166e-09 1.5444000658399242e-08 5.513080056055092e-09 -1.8989000788315595e-09 8.887590130395612e-09 -7.730910121524428 5.474879855648998 -0.41731399283890674 5.513089995288472e-09 -1.8989000788315595e-09 8.887590130395612e-09 -2.90554006136521 0.9651829962377875 -0.10290200252939893 5.513080056055092e-09 -1.8988899408135127e-09 8.887590130395612e-09 -10.278599710243157 0.7318009818271524 -0.025912300303053633 5.513080056055092e-09 -1.8988899408135127e-09 8.887590130395612e-09 -2.221669932038622 -0.7334870246959406 0.20891999872313852 -2.0321699793705798e-16 0.0 -3.882510030490358e-19 -9.124419830142415 3.2670899352208997 -9.93194028910833 -0.11064799733714875 37.53129867785686 1.7193499661106755 -11.50190025097078 -15.035199797300688 -27.44970040629709 2.0321699793705798e-16 0.0 3.882510030490358e-19 82.5770007258325 -51.877301652052 69.8896989462912 4.032749872311098 77.5807993102382 -4.2130100904519585 -1.316929947808922 -2.7729500813193955 -10.166400192747357
7.176829979289323 65.0750994682312 8.225999970454723 342.0749981639146 -27.59919958685033 372.46699038539685 16.447599247841993 9.259000170001054 -2.4266900128076023 5.648670177098564 -7.952309849696745 -0.12750799913820787 1.864249974753263 11.720299818550169 8.513420135297046 0.009658809628637048 -20.98990044214308 16.635099893389892 -0.0 0.0 0.0 -0.0 0.0 0.0 -4.016789995003174e-13 -2.632990036135328e-13 1.3562300396529946e-12 104.0840028372062 47.00759875498093 -54.80890080609151 -26.737900779680672 -44.68249990867104 92.81360331041654 -9.120379773248352 -61.78600051496207 -15.186000128890814 -2.1913600331788337e-09 7.912249978303384e-09 2.2384300558331504e-09 -3.876510139503967e-09 1.3604700198604957e-08 3.761449995778008e-09 -2.1913600331788337e-09 7.912260315106098e-09 2.238419917815103e-09 7.730910121524428 5.474879855648998 0.41731399283890674 -2.191369972412213e-09 7.912260315106098e-09 2.2384300558331504e-09 2.90554006136521 0.9651829962377875 0.10290200252939893 -2.191350093945454e-09 7.912249978303384e-09 2.2384300558331504e-09 10.278599710243157 0.7318009818271524 0.025912300303053633 -2.191369972412213e-09 7.912249978303384e-09 2.2384300558331504e-09 2.221669932038622 -0.7334870246959406 -0.20891999872313852 -4.018789974532335e-13 -2.6329499977196143e-13 1.3559800058132897e-12 17.90930071135974 17.975300829309575 -110.63000149623306 28.25539976607555 -32.451601614753756 -71.1871002093243 0.745745026461145 -23.746699687396337 3.544930077825971 6.192780096687917e-09 -2.948520097662692e-09 1.0603100221432655e-08 1.05048998005038e-08 -5.332950136809076e-09 1.841829954932453e-08 6.192780096687917e-09 -2.948509959644645e-09 1.0603100221432655e-08 -7.730910121524428 5.474879855648998 -0.41731399283890674 6.192780096687917e-09 -2.948509959644645e-09 1.0603100221432655e-08 -2.90554006136521 0.9651829962377875 -0.10290200252939893 6.192770157454538e-09 -2.948509959644645e-09 1.0603100221432655e-08 -10.278599710243157 0.7318009818271524 -0.025912300303053633 6.192770157454538e-09 -2.948509959644645e-09 1.0603100221432655e-08 -2.221669932038622 -0.7334870246959406 0.20891999872313852 -2.0321699793705798e-16 0.0 -3.882510030490358e-19 -9.196140231522135 3.357410008927621 -9.904160202206596 -0.10962000050620894 37.4978990528155 1.7214200470377183 -11.483000263763708 -15.036000636980873 -27.424500423354328 2.0321699793705798e-16 0.0 3.882510030490358e-19 82.62220291775964 -51.81409849656728 69.98289687751603 4.106179955417436 77.76199739872948 -4.288370128885648 -1.3109699674278512 -2.8053599692613407 -10.07820025244769
7.205699977930635 65.03700017929077 8.310999971581623 342.03601144413216 -27.685099460946994 372.45401302597384 16.430199340931384 9.250179834461628 -2.383880094637255 5.774950129568345 -7.9826196679123225 -0.1061229970120153 1.8232299930322822 11.747899759212544 8.489900378890109 0.03266890152187677 -20.969300591606324 16.597400664266004 -0.0 0.0 0.0 -0.0 0.0 0.0 3.1059999968629237e-13 6.433679840707686e-13 9.019309769509237e-13 104.01600147382955 46.95639965696252 -54.901299605183446 -26.72800042047874 -44.70650119341447 92.86220010636119 -9.096679870602054 -61.74460273840262 -15.15909942884472 -2.610540044714312e-09 6.190139838732968e-09 1.3424199943523218e-09 -4.555929893755489e-09 1.0483100278717047e-08 2.1902200031101965e-09 -2.6105299066962653e-09 6.190160114769062e-09 1.3424099557266085e-09 7.730910121524428 5.474879855648998 0.41731399283890674 -2.610540044714312e-09 6.190150175535683e-09 1.3424199943523218e-09 2.90554006136521 0.9651829962377875 0.10290200252939893 -2.6105299066962653e-09 6.190150175535683e-09 1.3424199943523218e-09 10.278599710243157 0.7318009818271524 0.025912300303053633 -2.610540044714312e-09 6.190139838732968e-09 1.3424199943523218e-09 2.221669932038622 -0.7334870246959406 -0.20891999872313852 3.1033598879964743e-13 6.433759917539113e-13 9.017240390059506e-13 16.93269977326381 15.760999604168338 -109.7610033583215 28.36110035857608 -33.59959931988199 -73.03230313435992 0.7174510211852201 -23.316700005556307 3.473079902852022 3.0807800847520034e-09 -5.246870014632606e-09 9.807039985347822e-09 5.1545699202072e-09 -9.255399810562766e-09 1.69855996097312e-08 3.0807800847520034e-09 -5.246870014632606e-09 9.807039985347822e-09 -7.730910121524428 5.474879855648998 -0.41731399283890674 3.0807800847520034e-09 -5.246870014632606e-09 9.807029648545107e-09 -2.90554006136521 0.9651829962377875 -0.10290200252939893 3.0807699467339562e-09 -5.246870014632606e-09 9.807039985347822e-09 -10.278599710243157 0.7318009818271524 -0.025912300303053633 3.0807800847520034e-09 -5.246870014632606e-09 9.807029648545107e-09 -2.221669932038622 -0.7334870246959406 0.20891999872313852 -2.0321699793705798e-16 0.0 -3.882510030490358e-19 -9.234840083359426 3.392459978427188 -9.861649958586082 -0.10925000302237127 37.4743007492331 1.7195599944276534 -11.420800292313341 -14.828699273029109 -27.518499194259334 2.0321699793705798e-16 0.0 3.882510030490358e-19 82.6764004688237 -51.75060164294826 70.05029718424571 4.173689972060664 77.92370212732953 -4.357489935738885 -1.3061700519886248 -2.872300091995697 -9.97082028718498
